{
  "accessors": [
    {
      "bufferView": 2,
      "componentType": 5126,
      "count": 362,
      "max": [
        0.032691925764083862,
        -0.52302443981170654,
        0.62469297647476196
      ],
      "min": [
        -0.032691925764083862,
        -0.53739899396896362,
        0.24501383304595947
      ],
      "type": "VEC3"
    },
    {
      "bufferView": 2,
      "byteOffset": 4344,
      "componentType": 5126,
      "count": 362,
      "max": [
        0.97860151529312134,
        1,
        0.97850686311721802
      ],
      "min": [
        -0.97860151529312134,
        -1,
        -0.97850686311721802
      ],
      "type": "VEC3"
    },
    {
      "bufferView": 3,
      "componentType": 5126,
      "count": 362,
      "max": [
        1,
        0.94896841049194336,
        0.99998891353607178,
        1
      ],
      "min": [
        -0.99999922513961792,
        -0.9489014744758606,
        -0.99998891353607178,
        -1
      ],
      "type": "VEC4"
    },
    {
      "bufferView": 3,
      "byteOffset": 5792,
      "componentType": 5126,
      "count": 362,
      "max": [
        0.90588235855102539,
        0.90588235855102539,
        0.90588235855102539,
        1
      ],
      "min": [
        0.30588236451148987,
        0.30588236451148987,
        0.30588236451148987,
        1
      ],
      "type": "VEC4"
    },
    {
      "bufferView": 1,
      "componentType": 5126,
      "count": 362,
      "max": [
        0.99995571374893188,
        0.89299339056015015
      ],
      "min": [
        4.431605339050293e-05,
        0.27679669857025146
      ],
      "type": "VEC2"
    },
    {
      "bufferView": 0,
      "componentType": 5125,
      "count": 1104,
      "max": [
        361
      ],
      "min": [
        0
      ],
      "type": "SCALAR"
    },
    {
      "bufferView": 2,
      "byteOffset": 8688,
      "componentType": 5126,
      "count": 3026,
      "max": [
        0.41713559627532959,
        7.4505805969238281e-09,
        0.85127758979797363
      ],
      "min": [
        -0.41713559627532959,
        -0.5763431191444397,
        0
      ],
      "type": "VEC3"
    },
    {
      "bufferView": 2,
      "byteOffset": 45000,
      "componentType": 5126,
      "count": 3026,
      "max": [
        1,
        1,
        1
      ],
      "min": [
        -1,
        -1,
        -1
      ],
      "type": "VEC3"
    },
    {
      "bufferView": 3,
      "byteOffset": 11584,
      "componentType": 5126,
      "count": 3026,
      "max": [
        1,
        1,
        1,
        1
      ],
      "min": [
        -1,
        -1,
        -1,
        -1
      ],
      "type": "VEC4"
    },
    {
      "bufferView": 3,
      "byteOffset": 60000,
      "componentType": 5126,
      "count": 3026,
      "max": [
        0.9843137264251709,
        0.9843137264251709,
        0.9843137264251709,
        1
      ],
      "min": [
        0.30588236451148987,
        0.30588236451148987,
        0.30588236451148987,
        1
      ],
      "type": "VEC4"
    },
    {
      "bufferView": 1,
      "byteOffset": 2896,
      "componentType": 5126,
      "count": 3026,
      "max": [
        2.0406026840209961,
        0.9999697208404541
      ],
      "min": [
        -1.0406029224395752,
        0.090055175125598907
      ],
      "type": "VEC2"
    },
    {
      "bufferView": 1,
      "byteOffset": 27104,
      "componentType": 5126,
      "count": 3026,
      "max": [
        2.0406026840209961,
        0.9999697208404541
      ],
      "min": [
        -1.0406029224395752,
        0.090055175125598907
      ],
      "type": "VEC2"
    },
    {
      "bufferView": 1,
      "byteOffset": 51312,
      "componentType": 5126,
      "count": 3026,
      "max": [
        2.0406026840209961,
        0.9999697208404541
      ],
      "min": [
        -1.0406029224395752,
        0.090055175125598907
      ],
      "type": "VEC2"
    },
    {
      "bufferView": 0,
      "byteOffset": 4416,
      "componentType": 5125,
      "count": 9918,
      "max": [
        3025
      ],
      "min": [
        0
      ],
      "type": "SCALAR"
    }
  ],
  "asset": {
    "extras": {
      "author": "Chris Sweetwood (https://sketchfab.com/ChrisSweetwood)",
      "license": "CC-BY-SA-4.0 (http://creativecommons.org/licenses/by-sa/4.0/)",
      "source": "https://sketchfab.com/3d-models/trim-sheet-example-dresser-ad55b740458f4de487ebfcb35908cd38",
      "title": "Trim Sheet  Example Dresser"
    },
    "generator": "Sketchfab-9.39.0",
    "version": "2.0"
  },
  "bufferViews": [
    {
      "buffer": 0,
      "byteLength": 44088,
      "byteOffset": 0,
      "name": "floatBufferViews",
      "target": 34963
    },
    {
      "buffer": 0,
      "byteLength": 75520,
      "byteOffset": 44088,
      "byteStride": 8,
      "name": "floatBufferViews",
      "target": 34962
    },
    {
      "buffer": 0,
      "byteLength": 81312,
      "byteOffset": 119608,
      "byteStride": 12,
      "name": "floatBufferViews",
      "target": 34962
    },
    {
      "buffer": 0,
      "byteLength": 108416,
      "byteOffset": 200920,
      "byteStride": 16,
      "name": "floatBufferViews",
      "target": 34962
    }
  ],
  "buffers": [
    {
      "byteLength": 309336,
      "uri": "scene.bin"
    }
  ],
  "images": [
    {
      "uri": "textures/Fbx_Default_Material_1_metallicRoughness.png"
    },
    {
      "uri": "textures/Fbx_Default_Material_1_normal.png"
    },
    {
      "uri": "textures/Material_baseColor.png"
    }
  ],
  "materials": [
    {
      "doubleSided": true,
      "name": "Fbx_Default_Material_1",
      "normalTexture": {
        "index": 1,
        "scale": 1,
        "texCoord": 0
      },
      "occlusionTexture": {
        "index": 0,
        "strength": 1,
        "texCoord": 0
      },
      "pbrMetallicRoughness": {
        "baseColorFactor": [
          0.49420407493205409,
          0.47591581495762786,
          0.43659794246561068,
          1
        ],
        "metallicFactor": 1,
        "metallicRoughnessTexture": {
          "index": 0,
          "texCoord": 0
        },
        "roughnessFactor": 1
      }
    },
    {
      "doubleSided": true,
      "name": "Material",
      "normalTexture": {
        "index": 1,
        "scale": 1,
        "texCoord": 0
      },
      "occlusionTexture": {
        "index": 0,
        "strength": 1,
        "texCoord": 0
      },
      "pbrMetallicRoughness": {
        "baseColorFactor": [
          1,
          1,
          1,
          1
        ],
        "baseColorTexture": {
          "index": 2,
          "texCoord": 0
        },
        "metallicFactor": 0,
        "metallicRoughnessTexture": {
          "index": 0,
          "texCoord": 0
        },
        "roughnessFactor": 1
      }
    }
  ],
  "meshes": [
    {
      "name": "Dresser_01_Fbx Default Material 1_0",
      "primitives": [
        {
          "attributes": {
            "COLOR_0": 3,
            "NORMAL": 1,
            "POSITION": 0,
            "TANGENT": 2,
            "TEXCOORD_0": 4
          },
          "indices": 5,
          "material": 0,
          "mode": 4
        }
      ]
    },
    {
      "name": "Dresser_01_Material_0",
      "primitives": [
        {
          "attributes": {
            "COLOR_0": 9,
            "NORMAL": 7,
            "POSITION": 6,
            "TANGENT": 8,
            "TEXCOORD_0": 10,
            "TEXCOORD_1": 11,
            "TEXCOORD_2": 12
          },
          "indices": 13,
          "material": 1,
          "mode": 4
        }
      ]
    }
  ],
  "nodes": [
    {
      "children": [
        1
      ],
      "name": "RootNode (gltf orientation matrix)",
      "rotation": [
        -0.70710678118654746,
        -0,
        -0,
        0.70710678118654757
      ]
    },
    {
      "children": [
        2
      ],
      "name": "RootNode (model correction matrix)"
    },
    {
      "children": [
        3
      ],
      "matrix": [
        1,
        0,
        0,
        0,
        0,
        0,
        1,
        0,
        0,
        -1,
        0,
        0,
        0,
        0,
        0,
        1
      ],
      "name": "0c54644070a249febdf62af88c191720.fbx"
    },
    {
      "children": [
        4
      ],
      "name": "RootNode"
    },
    {
      "children": [
        5,
        6
      ],
      "matrix": [
        100,
        0,
        0,
        0,
        0,
        -1.6292067939183141e-05,
        -99.999999999998678,
        0,
        0,
        99.999999999998678,
        -1.6292067939183141e-05,
        0,
        0,
        0,
        0,
        1
      ],
      "name": "Dresser_01"
    },
    {
      "mesh": 0,
      "name": "Dresser_01_Fbx Default Material 1_0"
    },
    {
      "mesh": 1,
      "name": "Dresser_01_Material_0"
    }
  ],
  "samplers": [
    {
      "magFilter": 9729,
      "minFilter": 9987,
      "wrapS": 10497,
      "wrapT": 10497
    }
  ],
  "scene": 0,
  "scenes": [
    {
      "name": "OSG_Scene",
      "nodes": [
        0
      ]
    }
  ],
  "textures": [
    {
      "sampler": 0,
      "source": 0
    },
    {
      "sampler": 0,
      "source": 1
    },
    {
      "sampler": 0,
      "source": 2
    }
  ]
}

