{
  "accessors": [
    {
      "bufferView": 2,
      "componentType": 5126,
      "count": 3582,
      "max": [
        6.3390870094299316,
        6.7113161087036133,
        5.0504679679870605
      ],
      "min": [
        -5.7865381240844727,
        -11.53180980682373,
        -1.416208028793335
      ],
      "type": "VEC3"
    },
    {
      "bufferView": 2,
      "byteOffset": 42984,
      "componentType": 5126,
      "count": 3582,
      "max": [
        0.99984228610992432,
        1,
        1
      ],
      "min": [
        -0.99954330921173096,
        -1,
        -0.99999850988388062
      ],
      "type": "VEC3"
    },
    {
      "bufferView": 3,
      "componentType": 5126,
      "count": 3582,
      "max": [
        0.99270445108413696,
        1,
        1,
        1
      ],
      "min": [
        -0.98372936248779297,
        -0.99993520975112915,
        -1,
        1
      ],
      "type": "VEC4"
    },
    {
      "bufferView": 1,
      "componentType": 5126,
      "count": 3582,
      "max": [
        0.98806971311569214,
        0.99765408039093018
      ],
      "min": [
        0.00021162799384910613,
        0.00021162799384910613
      ],
      "type": "VEC2"
    },
    {
      "bufferView": 0,
      "componentType": 5125,
      "count": 12060,
      "max": [
        3581
      ],
      "min": [
        0
      ],
      "type": "SCALAR"
    },
    {
      "bufferView": 2,
      "byteOffset": 85968,
      "componentType": 5126,
      "count": 2812,
      "max": [
        6.1259250640869141,
        1.0246670246124268,
        3.2644879817962646
      ],
      "min": [
        -8.3321123123168945,
        -6.8672242164611816,
        -1.3984270095825195
      ],
      "type": "VEC3"
    },
    {
      "bufferView": 2,
      "byteOffset": 119712,
      "componentType": 5126,
      "count": 2812,
      "max": [
        0.99983060359954834,
        0.99979400634765625,
        0.75377267599105835
      ],
      "min": [
        -0.99983060359954834,
        -0.99979400634765625,
        -0.99998122453689575
      ],
      "type": "VEC3"
    },
    {
      "bufferView": 3,
      "byteOffset": 57312,
      "componentType": 5126,
      "count": 2812,
      "max": [
        0.9997941255569458,
        0.99980622529983521,
        1,
        1
      ],
      "min": [
        -0.9997941255569458,
        -0.99980628490447998,
        -1,
        1
      ],
      "type": "VEC4"
    },
    {
      "bufferView": 1,
      "byteOffset": 28656,
      "componentType": 5126,
      "count": 2812,
      "max": [
        0.99425351619720459,
        0.99796038866043091
      ],
      "min": [
        0.0020396111067384481,
        0.0020396111067384481
      ],
      "type": "VEC2"
    },
    {
      "bufferView": 0,
      "byteOffset": 48240,
      "componentType": 5125,
      "count": 9900,
      "max": [
        2811
      ],
      "min": [
        0
      ],
      "type": "SCALAR"
    }
  ],
  "asset": {
    "extras": {
      "author": "Graham (https://sketchfab.com/Graham.Jolliffe)",
      "license": "CC-BY-4.0 (http://creativecommons.org/licenses/by/4.0/)",
      "source": "https://sketchfab.com/3d-models/table-and-chairs-3d89401bfcdc482c990d2b9536dc3c6d",
      "title": "Table and Chairs"
    },
    "generator": "Sketchfab-9.14.0",
    "version": "2.0"
  },
  "bufferViews": [
    {
      "buffer": 0,
      "byteLength": 87840,
      "byteOffset": 0,
      "name": "floatBufferViews",
      "target": 34963
    },
    {
      "buffer": 0,
      "byteLength": 51152,
      "byteOffset": 87840,
      "byteStride": 8,
      "name": "floatBufferViews",
      "target": 34962
    },
    {
      "buffer": 0,
      "byteLength": 153456,
      "byteOffset": 138992,
      "byteStride": 12,
      "name": "floatBufferViews",
      "target": 34962
    },
    {
      "buffer": 0,
      "byteLength": 102304,
      "byteOffset": 292448,
      "byteStride": 16,
      "name": "floatBufferViews",
      "target": 34962
    }
  ],
  "buffers": [
    {
      "byteLength": 394752,
      "uri": "scene.bin"
    }
  ],
  "images": [
    {
      "uri": "textures/Material_baseColor.png"
    },
    {
      "uri": "textures/Material_metallicRoughness.png"
    },
    {
      "uri": "textures/Material_normal.png"
    },
    {
      "uri": "textures/Test_baseColor.png"
    },
    {
      "uri": "textures/Test_metallicRoughness.png"
    },
    {
      "uri": "textures/Test_normal.png"
    }
  ],
  "materials": [
    {
      "doubleSided": true,
      "name": "Material",
      "normalTexture": {
        "index": 2,
        "scale": 1,
        "texCoord": 0
      },
      "pbrMetallicRoughness": {
        "baseColorFactor": [
          1,
          1,
          1,
          1
        ],
        "baseColorTexture": {
          "index": 0,
          "texCoord": 0
        },
        "metallicFactor": 1,
        "metallicRoughnessTexture": {
          "index": 1,
          "texCoord": 0
        },
        "roughnessFactor": 1
      }
    },
    {
      "doubleSided": true,
      "name": "Test",
      "normalTexture": {
        "index": 5,
        "scale": 1,
        "texCoord": 0
      },
      "pbrMetallicRoughness": {
        "baseColorFactor": [
          1,
          1,
          1,
          1
        ],
        "baseColorTexture": {
          "index": 3,
          "texCoord": 0
        },
        "metallicFactor": 1,
        "metallicRoughnessTexture": {
          "index": 4,
          "texCoord": 0
        },
        "roughnessFactor": 1
      }
    }
  ],
  "meshes": [
    {
      "name": "Material-material",
      "primitives": [
        {
          "attributes": {
            "NORMAL": 1,
            "POSITION": 0,
            "TANGENT": 2,
            "TEXCOORD_0": 3
          },
          "indices": 4,
          "material": 0,
          "mode": 4
        }
      ]
    },
    {
      "name": "Test-material",
      "primitives": [
        {
          "attributes": {
            "NORMAL": 6,
            "POSITION": 5,
            "TANGENT": 7,
            "TEXCOORD_0": 8
          },
          "indices": 9,
          "material": 1,
          "mode": 4
        }
      ]
    }
  ],
  "nodes": [
    {
      "children": [
        1
      ],
      "name": "RootNode (gltf orientation matrix)",
      "rotation": [
        -0.70710678118654746,
        -0,
        -0,
        0.70710678118654757
      ]
    },
    {
      "children": [
        2
      ],
      "name": "RootNode (model correction matrix)"
    },
    {
      "children": [
        3
      ],
      "name": "Collada visual scene group"
    },
    {
      "children": [
        4,
        5
      ],
      "matrix": [
        -0.007221791,
        0.35564770000000001,
        0,
        0,
        -0.35564770000000001,
        -0.007221791,
        0,
        0,
        0,
        0,
        0.35572100000000001,
        0,
        -0.029793980000000001,
        0.0067090989999999996,
        3.7016140000000002,
        1
      ],
      "name": "Export"
    },
    {
      "mesh": 0,
      "name": "Material-material"
    },
    {
      "mesh": 1,
      "name": "Test-material"
    }
  ],
  "samplers": [
    {
      "magFilter": 9729,
      "minFilter": 9987,
      "wrapS": 10497,
      "wrapT": 10497
    }
  ],
  "scene": 0,
  "scenes": [
    {
      "name": "OSG_Scene",
      "nodes": [
        0
      ]
    }
  ],
  "textures": [
    {
      "sampler": 0,
      "source": 0
    },
    {
      "sampler": 0,
      "source": 1
    },
    {
      "sampler": 0,
      "source": 2
    },
    {
      "sampler": 0,
      "source": 3
    },
    {
      "sampler": 0,
      "source": 4
    },
    {
      "sampler": 0,
      "source": 5
    }
  ]
}

